<svg xmlns="http://www.w3.org/2000/svg" width="1500" height="650" viewBox="0 0 1500 650">
  <defs>
    <style>
      .bg{fill:#eaf0f1}.panel{fill:#fff;stroke:#d5dee2}.soft{fill:#eef8f6}.ink{fill:#0d1b24}.muted{fill:#61727b}.brand{fill:#0f6661}.white{fill:#fff}.warn{fill:#fff1d9}.ok{fill:#e8f6ee}.violet{fill:#eee8fb}.blue{fill:#e9f4fb}.line{stroke:#d5dee2}.txt{font-family:Arial,Helvetica,sans-serif}.title{font-size:30px;font-weight:900}.h2{font-size:17px;font-weight:850}.small{font-size:12px}.tiny{font-size:11px}.mid{font-size:14px}.bold{font-weight:850}.shadow{filter:drop-shadow(0 8px 18px rgba(20,32,34,.08))}
    </style>
  </defs>
  <rect class="bg" width="1500" height="650"/>

  <g transform="translate(20 18)">
    <rect x="0" y="0" width="128" height="28" rx="14" fill="#eefbf8" stroke="#acd7ce"/>
    <text x="15" y="18" class="txt tiny bold brand">VISTA PORTFOLIO</text>
    <text x="0" y="62" class="txt title ink">Documenti</text>

    <g transform="translate(485 0)">
      <rect class="panel shadow" x="0" y="0" width="290" height="46" rx="10"/>
      <circle cx="28" cy="23" r="16" fill="#dce9e8"/>
      <text x="18" y="28" class="txt tiny bold brand">PM</text>
      <text x="54" y="28" class="txt mid ink">Paola Manager · Project Manager</text>
      <rect class="panel shadow" x="304" y="0" width="250" height="46" rx="10"/>
      <text x="326" y="29" class="txt mid ink">Portfolio</text>
      <path d="M528 19l6 6 6-6" fill="none" stroke="#526873" stroke-width="2"/>
      <rect class="panel shadow" x="568" y="0" width="390" height="46" rx="10"/>
      <circle cx="592" cy="23" r="7" fill="none" stroke="#526873" stroke-width="2"/>
      <path d="M597 28l8 8" stroke="#526873" stroke-width="2"/>
      <text x="622" y="29" class="txt mid muted">Cerca cantieri, issue, fornitori</text>
      <rect class="panel shadow" x="970" y="0" width="46" height="46" rx="10"/>
      <path d="M993 14c-7 0-10 5-10 11v7l-4 5h28l-4-5v-7c0-6-3-11-10-11z" fill="none" stroke="#1b2b34" stroke-width="2"/>
      <rect x="1030" y="0" width="170" height="46" rx="10" fill="#0f6661"/>
      <text x="1067" y="29" class="txt mid bold white">Scarica report</text>
      <rect class="panel shadow" x="1210" y="0" width="62" height="46" rx="10"/>
      <text x="1231" y="29" class="txt mid ink">Esci</text>
    </g>
  </g>

  <g transform="translate(20 122)">
    <g>
      <rect class="panel shadow" x="0" y="0" width="350" height="72" rx="9"/>
      <text x="28" y="44" class="txt title ink">5</text>
      <text x="80" y="25" class="txt mid muted">Documenti visibili</text>
      <rect x="80" y="38" width="104" height="22" rx="11" class="blue"/>
      <text x="94" y="53" class="txt tiny bold" fill="#146b93">Tutti i cantieri</text>
    </g>
    <g transform="translate(362 0)">
      <rect class="panel shadow" x="0" y="0" width="350" height="72" rx="9"/>
      <text x="28" y="44" class="txt title ink">2</text>
      <text x="80" y="25" class="txt mid muted">In revisione</text>
      <rect x="80" y="38" width="112" height="22" rx="11" class="warn"/>
      <text x="94" y="53" class="txt tiny bold" fill="#7d5600">workflow aperti</text>
    </g>
    <g transform="translate(724 0)">
      <rect class="panel shadow" x="0" y="0" width="350" height="72" rx="9"/>
      <text x="28" y="44" class="txt title ink">2</text>
      <text x="80" y="25" class="txt mid muted">Approvati</text>
      <rect x="80" y="38" width="126" height="22" rx="11" class="ok"/>
      <text x="94" y="53" class="txt tiny bold" fill="#0d693e">versioni congelate</text>
    </g>
    <g transform="translate(1086 0)">
      <rect class="panel shadow" x="0" y="0" width="350" height="72" rx="9"/>
      <text x="28" y="44" class="txt title ink">1</text>
      <text x="80" y="25" class="txt mid muted">Riservati</text>
      <rect x="80" y="38" width="98" height="22" rx="11" class="violet"/>
      <text x="94" y="53" class="txt tiny bold" fill="#5e4097">policy accessi</text>
    </g>
  </g>

  <g transform="translate(20 205)">
    <rect x="0" y="0" width="46" height="46" rx="14" fill="#0f6661" class="shadow"/>
    <path d="M26 10H15a2 2 0 0 0-2 2v22a2 2 0 0 0 2 2h16a2 2 0 0 0 2-2V17z" fill="none" stroke="#fff" stroke-width="2"/>
    <path d="M26 10v7h7M23 32V20M18 27l5 5 5-5" fill="none" stroke="#fff" stroke-width="2"/>
    <rect x="54" y="12" width="58" height="22" rx="11" class="soft" stroke="#cbe3df"/>
    <text x="66" y="27" class="txt tiny bold brand">Upload</text>

    <rect class="panel shadow" x="128" y="0" width="610" height="46" rx="10"/>
    <circle cx="154" cy="23" r="7" fill="none" stroke="#526873" stroke-width="2"/>
    <path d="M159 28l8 8" stroke="#526873" stroke-width="2"/>
    <text x="178" y="29" class="txt" font-size="16" fill="#6b7c84">Cerca documenti, WBS, fornitore. Upload: file → AI → PM.</text>

    <g transform="translate(752 4)">
      <rect x="0" y="0" width="58" height="38" rx="19" class="soft" stroke="#8fc5bc"/>
      <text x="15" y="24" class="txt mid bold brand">Tutti</text>
      <rect class="panel" x="68" y="0" width="58" height="38" rx="19"/>
      <text x="86" y="24" class="txt mid ink">PDF</text>
      <rect class="panel" x="136" y="0" width="74" height="38" rx="19"/>
      <text x="153" y="24" class="txt mid ink">Tavole</text>
      <rect class="panel" x="220" y="0" width="86" height="38" rx="19"/>
      <text x="235" y="24" class="txt mid ink">Contratti</text>
      <rect class="panel" x="316" y="0" width="58" height="38" rx="19"/>
      <text x="334" y="24" class="txt mid ink">SAL</text>
      <rect class="panel" x="384" y="0" width="74" height="38" rx="19"/>
      <text x="400" y="24" class="txt mid ink">Report</text>
    </g>
    <g transform="translate(1242 1)">
      <rect class="panel shadow" x="0" y="0" width="128" height="42" rx="21"/>
      <rect x="4" y="4" width="68" height="34" rx="17" class="soft"/>
      <text x="16" y="26" class="txt small bold brand">Tabella</text>
      <text x="86" y="26" class="txt small bold muted">Card</text>
    </g>
  </g>

  <text x="76" y="286" class="txt small muted"><tspan class="bold brand">Flow upload su badge:</tspan> selezione file, classificazione AI, salvataggio/versione, notifica PM per eventuale revisione o approvazione gerarchica.</text>

  <g transform="translate(20 318)">
    <rect class="panel shadow" x="0" y="0" width="1450" height="260" rx="9"/>
    <text x="14" y="32" class="txt h2 ink">Archivio documentale</text>
    <g transform="translate(1220 14)">
      <rect x="0" y="0" width="48" height="22" rx="11" class="soft"/>
      <text x="12" y="15" class="txt tiny bold brand">Stato</text>
      <rect x="58" y="0" width="64" height="22" rx="11" class="soft"/>
      <text x="69" y="15" class="txt tiny bold brand">Versioni</text>
      <rect x="132" y="0" width="50" height="22" rx="11" class="soft"/>
      <text x="146" y="15" class="txt tiny bold brand">Audit</text>
    </g>
    <line x1="0" y1="52" x2="1450" y2="52" class="line"/>
    <g transform="translate(14 82)" class="txt tiny bold muted">
      <text x="0" y="0">TIPO</text>
      <text x="74" y="0">DOCUMENTO</text>
      <text x="420" y="0">CANTIERE / CONTESTO</text>
      <text x="710" y="0">OWNER</text>
      <text x="890" y="0">VERSIONE</text>
      <text x="1040" y="0">STATO / POLICY</text>
      <text x="1320" y="0">AZIONI</text>
    </g>
    <line x1="0" y1="98" x2="1450" y2="98" class="line"/>
    <g transform="translate(14 122)">
      <rect width="40" height="40" rx="10" class="blue"/>
      <text x="8" y="25" class="txt tiny bold" fill="#146b93">PDF</text>
      <text x="74" y="17" class="txt mid bold ink">Variante impianti</text>
      <text x="74" y="38" class="txt small muted">Blocco B · v3</text>
      <text x="420" y="17" class="txt mid bold ink">Residenza Porta Nuova</text>
      <text x="420" y="38" class="txt small muted">Blocco B</text>
      <text x="710" y="17" class="txt mid bold ink">Anna S.</text>
      <text x="710" y="38" class="txt small muted">Workflow PM</text>
      <rect x="890" y="6" width="42" height="22" rx="11" class="blue"/>
      <text x="902" y="21" class="txt tiny bold" fill="#146b93">V3</text>
      <rect x="1040" y="6" width="112" height="22" rx="11" class="warn"/>
      <text x="1052" y="21" class="txt tiny bold" fill="#7d5600">In approvazione</text>
      <rect x="1160" y="6" width="78" height="22" rx="11" class="soft"/>
      <text x="1172" y="21" class="txt tiny bold brand">Review PM</text>
      <rect x="1320" y="0" width="72" height="34" rx="8" fill="#fff" stroke="#d5dee2"/>
      <text x="1342" y="22" class="txt small bold ink">Audit</text>
    </g>
  </g>

  <g transform="translate(78 257)">
    <rect width="340" height="124" rx="12" fill="#fff" stroke="#cddadd" class="shadow"/>
    <text x="14" y="25" class="txt mid bold ink">Badge Upload aperto</text>
    <text x="14" y="51" class="txt small muted">1. File: PDF, tavola, contratto, SAL.</text>
    <text x="14" y="72" class="txt small muted">2. AI: propone cantiere, WBS e collegamenti.</text>
    <text x="14" y="93" class="txt small muted">3. Versioning: nuovo documento o versione.</text>
    <text x="14" y="114" class="txt small muted">4. PM: decide se serve workflow.</text>
  </g>
</svg>
